<svg width="100" height="100" viewBox="0 0 100 100" fill="none" xmlns="http://www.w3.org/2000/svg">
<g clip-path="url(#clip0_4_9)">
<path d="M46.8722 11.7818C46.8722 10.9934 47.1854 10.2374 47.7428 9.67999C48.3002 9.12257 49.0562 8.80941 49.8446 8.80941C50.6329 8.80941 51.3889 9.12257 51.9463 9.67999C52.5037 10.2374 52.8169 10.9934 52.8169 11.7818C52.8169 12.5701 52.5037 13.3261 51.9463 13.8835C51.3889 14.441 50.6329 14.7541 49.8446 14.7541C49.0562 14.7541 48.3002 14.441 47.7428 13.8835C47.1854 13.3261 46.8722 12.5701 46.8722 11.7818ZM11.4145 38.6928C11.4145 37.9045 11.7276 37.1485 12.2851 36.591C12.8425 36.0336 13.5985 35.7204 14.3868 35.7204C15.1751 35.7204 15.9312 36.0336 16.4886 36.591C17.046 37.1485 17.3592 37.9045 17.3592 38.6928C17.3592 39.4811 17.046 40.2371 16.4886 40.7946C15.9312 41.352 15.1751 41.6652 14.3868 41.6652C13.5985 41.6652 12.8425 41.352 12.2851 40.7946C11.7276 40.2371 11.4145 39.4811 11.4145 38.6928ZM82.3283 38.8313C82.3283 38.043 82.6415 37.287 83.1989 36.7296C83.7563 36.1721 84.5123 35.859 85.3006 35.859C86.089 35.859 86.845 36.1721 87.4024 36.7296C87.9598 37.287 88.273 38.043 88.273 38.8313C88.273 39.6197 87.9598 40.3757 87.4024 40.9331C86.845 41.4905 86.089 41.8037 85.3006 41.8037C84.5123 41.8037 83.7563 41.4905 83.1989 40.9331C82.6415 40.3757 82.3283 39.6197 82.3283 38.8313ZM20.0181 42.9041C20.6754 42.6117 21.1897 42.0704 21.448 41.3991C21.7064 40.7277 21.6877 39.9813 21.396 39.3237L20.0774 36.341H25.2634V59.7175H14.8003C13.5087 55.181 13.1063 50.4376 13.6153 45.7483L20.0181 42.9041ZM41.712 43.4783V36.588H54.0621C54.6997 36.588 58.5663 37.3249 58.5663 40.2159C58.5663 42.617 55.601 43.4774 53.1624 43.4774L41.712 43.4783ZM24.8511 80.577C24.8511 79.7887 25.1643 79.0327 25.7217 78.4753C26.2791 77.9178 27.0352 77.6047 27.8235 77.6047C28.6118 77.6047 29.3678 77.9178 29.9252 78.4753C30.4827 79.0327 30.7958 79.7887 30.7958 80.577C30.7958 81.3653 30.4827 82.1214 29.9252 82.6788C29.3678 83.2362 28.6118 83.5494 27.8235 83.5494C27.0352 83.5494 26.2791 83.2362 25.7217 82.6788C25.1643 82.1214 24.8511 81.3653 24.8511 80.577ZM68.8908 80.7156C68.8908 79.9273 69.204 79.1712 69.7614 78.6138C70.3188 78.0564 71.0748 77.7432 71.8631 77.7432C72.6515 77.7432 73.4075 78.0564 73.9649 78.6138C74.5223 79.1712 74.8355 79.9273 74.8355 80.7156C74.8355 81.5039 74.5223 82.2599 73.9649 82.8173C73.4075 83.3748 72.6515 83.6879 71.8631 83.6879C71.0748 83.6879 70.3188 83.3748 69.7614 82.8173C69.204 82.2599 68.8908 81.5039 68.8908 80.7156ZM69.8097 73.9755C69.4615 73.9008 69.1019 73.8954 68.7517 73.9598C68.4014 74.0242 68.0672 74.157 67.7683 74.3506C67.4694 74.5442 67.2116 74.7949 67.0097 75.0883C66.8078 75.3816 66.6657 75.7119 66.5916 76.0603L65.1002 83.0223C60.3026 85.1956 55.0925 86.3076 49.8257 86.2824C44.5589 86.2572 39.3597 85.0953 34.5831 82.8763L33.0917 75.9142C33.0175 75.5661 32.8754 75.2361 32.6735 74.9429C32.4717 74.6498 32.214 74.3993 31.9153 74.2058C31.6166 74.0122 31.2827 73.8795 30.9327 73.815C30.5826 73.7506 30.2233 73.7558 29.8753 73.8303L23.7286 75.1498C22.5866 73.9738 21.5248 72.7225 20.5506 71.4042H50.4567C50.7956 71.4042 51.0209 71.3424 51.0209 71.0344V60.4553C51.0209 60.1473 50.7956 60.0864 50.4567 60.0864H41.7104V53.3806H51.1703C52.0341 53.3806 55.7872 53.6276 56.9873 58.4256C57.3628 59.9011 58.1891 64.7008 58.7532 66.2373C59.3157 67.9607 61.605 71.4033 64.0444 71.4033H79.4849C78.4496 72.7893 77.3173 74.1001 76.0965 75.3259L69.8097 73.9755ZM86.416 46.0438C86.626 48.1551 86.652 50.2807 86.4937 52.3966H82.7389C82.3633 52.3966 82.2123 52.6436 82.2123 53.0117V54.7359C82.2123 58.7945 79.9239 59.6766 77.9184 59.902C76.0089 60.1173 73.8916 59.1025 73.6304 57.934C72.5037 51.5971 70.6259 50.2442 67.6615 47.9057C71.3411 45.5689 75.1693 42.1221 75.1693 37.5094C75.1693 32.5269 71.7542 29.3897 69.4266 27.8516C66.1601 25.6984 62.5447 25.2677 61.5691 25.2677H22.7397C28.1073 19.269 35.3031 15.2074 43.2126 13.7121L47.7894 18.5135C48.035 18.7711 48.329 18.9778 48.6545 19.1216C48.9801 19.2655 49.3308 19.3437 49.6866 19.3519C50.0424 19.36 50.3964 19.2979 50.7281 19.1691C51.0599 19.0402 51.363 18.8472 51.6201 18.6011L56.7419 13.703C61.9623 14.681 66.9072 16.7836 71.2332 19.8649C75.5593 22.9462 79.1627 26.9323 81.7933 31.5463L78.2873 39.464C77.9966 40.1217 77.9784 40.8679 78.2369 41.539C78.4953 42.2101 79.0092 42.7514 79.666 43.0443L86.416 46.0438ZM95.1599 46.1723L95.0405 44.948L98.6517 41.5796C99.3862 40.8953 99.1108 39.5165 98.1727 39.1668L93.5558 37.4409L93.1945 36.2491L96.0737 32.2498C96.6613 31.437 96.1221 30.1384 95.1332 29.9764L90.2651 29.1844L89.6809 28.0911L91.7256 23.6011C92.1446 22.6872 91.3667 21.518 90.3602 21.5564L85.4196 21.7283L84.6392 20.781L85.7743 15.9689C86.0038 14.9924 85.0123 13.9992 84.035 14.2288L79.2237 15.3629L78.2756 14.5826L78.4484 9.6419C78.4867 8.64208 77.3158 7.86007 76.4037 8.2757L71.9145 10.3221L70.8212 9.73538L70.0283 4.86727C69.8673 3.87996 68.5678 3.33999 67.7558 3.92586L63.7532 6.80517L62.5639 6.44463L60.838 1.82773C60.4875 0.887159 59.1088 0.615921 58.4261 1.34701L55.0577 4.96074L53.8334 4.8414L51.232 0.638454C50.7063 -0.212818 49.2975 -0.212818 48.7734 0.638454L46.172 4.8414L44.9477 4.96074L41.5785 1.34701C40.895 0.615921 39.5171 0.887159 39.1666 1.82773L37.4399 6.44463L36.2498 6.80517L32.248 3.92586C31.4351 3.33916 30.1365 3.87996 29.9754 4.86727L29.1817 9.73538L28.0885 10.3221L23.5993 8.2757C22.6871 7.85841 21.5162 8.64208 21.5546 9.6419L21.7265 14.5826L20.7784 15.3629L15.9671 14.2279C14.9898 14.0009 13.9975 14.9916 14.2262 15.9689L15.3595 20.781L14.5809 21.7283L9.64017 21.5564C8.64453 21.5272 7.85919 22.6872 8.27397 23.6011L10.3212 28.0911L9.73448 29.1844L4.86724 29.9764C3.87827 30.1367 3.34247 31.437 3.92584 32.2498L6.80512 36.2491L6.44375 37.4409L1.82688 39.1668C0.889656 39.5174 0.615082 40.8944 1.34784 41.5796L4.95988 44.948L4.84053 46.1723L0.63845 48.7729C-0.212817 49.2986 -0.212817 50.7074 0.63845 51.2315L4.84053 53.8329L4.95988 55.0572L1.34784 58.4264C0.615082 59.1091 0.889657 60.4862 1.82688 60.8384L6.44375 62.5643L6.80512 63.7561L3.92584 67.7562C3.3408 68.5708 3.8791 69.8694 4.86808 70.0288L9.73448 70.82L10.3212 71.9149L8.27397 76.4033C7.85669 77.3155 8.64453 78.4897 9.64101 78.4489L14.5792 78.2761L15.3595 79.2242L14.2262 84.038C13.9967 85.0128 14.9898 86.0035 15.9671 85.774L20.7784 84.6414L21.7273 85.4193L21.5546 90.3608C21.5162 91.3615 22.6871 92.1435 23.5993 91.7262L28.0885 89.6815L29.1817 90.2673L29.9746 95.1329C30.1357 96.1236 31.4351 96.6594 32.2488 96.076L36.2481 93.1942L37.439 93.5573L39.1658 98.1725C39.5163 99.1097 40.895 99.386 41.5777 98.6515L44.9469 95.0395L46.1712 95.1613L48.7726 99.3634C49.2967 100.211 50.7054 100.213 51.2312 99.3634L53.8326 95.1613L55.0569 95.0395L58.4252 98.6515C59.1079 99.386 60.4866 99.1097 60.8372 98.1725L62.5631 93.5573L63.7548 93.1942L67.755 96.076C68.5678 96.6594 69.8664 96.1219 70.0267 95.1329L70.8212 90.2673L71.9145 89.6806L76.4028 91.7262C77.315 92.1435 78.4834 91.3631 78.4475 90.3608L78.2756 85.4201L79.2228 84.6414L84.0342 85.774C85.0115 86.0035 86.0038 85.0128 85.7743 84.038L84.6409 79.2242L85.4187 78.2761L90.3594 78.4489C91.3559 78.4889 92.1437 77.3155 91.7248 76.4033L89.6801 71.9149L90.2643 70.82L95.1323 70.0288C96.123 69.8702 96.6605 68.5708 96.0729 67.7562L93.1936 63.7561L93.555 62.5643L98.1719 60.8384C99.1108 60.4862 99.3853 59.1091 98.6509 58.4264L95.0397 55.0572L95.159 53.8329L99.3611 51.2315C100.212 50.7074 100.213 49.2995 99.362 48.7729L95.1599 46.1723Z" fill="#FF7043"/>
</g>
<defs>
<clipPath id="clip0_4_9">
<rect width="100" height="100" fill="white"/>
</clipPath>
</defs>
</svg>
